<svg xmlns="http://www.w3.org/2000/svg" version="1.1" width="64px" height="64px" viewBox="0 0 64 64" style="shape-rendering:geometricPrecision; text-rendering:geometricPrecision; image-rendering:optimizeQuality; fill-rule:evenodd; clip-rule:evenodd" xmlns:xlink="http://www.w3.org/1999/xlink">
    <g><path style="opacity:0.995" fill="#dc8658" d="M 27.5,-0.5 C 28.1667,-0.5 28.8333,-0.5 29.5,-0.5C 29.046,2.13983 27.8793,4.47317 26,6.5C 21.2691,11.062 16.7691,15.7287 12.5,20.5C 11.1667,19.8333 10.1667,18.8333 9.5,17.5C 15.5,11.5 21.5,5.5 27.5,-0.5 Z"/></g>
    <g><path style="opacity:1" fill="#d6694b" d="M 29.5,-0.5 C 29.8333,-0.5 30.1667,-0.5 30.5,-0.5C 30.5,0.166667 30.8333,0.5 31.5,0.5C 31.5,1.5 31.5,2.5 31.5,3.5C 25.5,9.5 19.5,15.5 13.5,21.5C 12.8333,21.5 12.5,21.1667 12.5,20.5C 16.7691,15.7287 21.2691,11.062 26,6.5C 27.8793,4.47317 29.046,2.13983 29.5,-0.5 Z"/></g>
    <g><path style="opacity:1" fill="#ffd96e" d="M 9.5,17.5 C 10.1667,18.8333 11.1667,19.8333 12.5,20.5C 12.5,21.1667 12.8333,21.5 13.5,21.5C 13.5,22.8333 12.8333,23.5 11.5,23.5C 10.5,21.8333 9.16667,20.5 7.5,19.5C 7.5,18.1667 8.16667,17.5 9.5,17.5 Z"/></g>
    <g><path style="opacity:1" fill="#a3c9ce" d="M 7.5,19.5 C 9.16667,20.5 10.5,21.8333 11.5,23.5C 11.1667,24.5 10.5,25.1667 9.5,25.5C 8.5,23.8333 7.16667,22.5 5.5,21.5C 5.83333,20.5 6.5,19.8333 7.5,19.5 Z"/></g>
    <g><path style="opacity:0.987" fill="#706570" d="M 5.5,21.5 C 7.16667,22.5 8.5,23.8333 9.5,25.5C 8.52651,28.135 6.85984,30.135 4.5,31.5C 2.83333,31.5 1.16667,31.5 -0.5,31.5C -0.5,29.8333 -0.5,28.1667 -0.5,26.5C 0.865049,24.1402 2.86505,22.4735 5.5,21.5 Z"/></g>
</svg>