<svg xmlns="http://www.w3.org/2000/svg" version="1.1" width="92px" height="92px" viewBox="0 0 300 300" style="shape-rendering:geometricPrecision; text-rendering:geometricPrecision; image-rendering:optimizeQuality; fill-rule:evenodd; clip-rule:evenodd" xmlns:xlink="http://www.w3.org/1999/xlink">
<g><path style="opacity:0.99" fill="#db8658" d="M 82.5,-0.5 C 83.1667,-0.5 83.8333,-0.5 84.5,-0.5C 86.8047,2.38386 86.9714,5.38386 85,8.5C 68.9603,25.7036 53.1269,43.037 37.5,60.5C 37.1667,60.5 36.8333,60.5 36.5,60.5C 33.5,57.1667 30.5,53.8333 27.5,50.5C 45.5326,33.1325 63.8659,16.1325 82.5,-0.5 Z"/></g>
<g><path style="opacity:1" fill="#d6694b" d="M 84.5,-0.5 C 85.8333,-0.5 87.1667,-0.5 88.5,-0.5C 89.1667,0.833333 90.1667,1.83333 91.5,2.5C 91.5,4.5 91.5,6.5 91.5,8.5C 74.8675,27.1341 57.8675,45.4674 40.5,63.5C 39.1667,62.8333 38.1667,61.8333 37.5,60.5C 53.1269,43.037 68.9603,25.7036 85,8.5C 86.9714,5.38386 86.8047,2.38386 84.5,-0.5 Z"/></g>
<g><path style="opacity:1" fill="#fdde75" d="M 27.5,50.5 C 30.5,53.8333 33.5,57.1667 36.5,60.5C 37.2436,63.9496 35.9103,65.6162 32.5,65.5C 29.1047,62.0985 25.438,59.0985 21.5,56.5C 20.5,51.5 22.5,49.5 27.5,50.5 Z"/></g>
<g><path style="opacity:1" fill="#a6cccf" d="M 21.5,56.5 C 25.438,59.0985 29.1047,62.0985 32.5,65.5C 33.6005,66.6049 34.2671,67.9382 34.5,69.5C 32.3549,70.9885 30.0215,71.9885 27.5,72.5C 26.8333,71.1667 25.8333,70.1667 24.5,69.5C 23.8333,68.1667 22.8333,67.1667 21.5,66.5C 21.1667,65.5 20.5,64.8333 19.5,64.5C 19.5,63.8333 19.1667,63.5 18.5,63.5C 18.3893,62.8826 18.056,62.3826 17.5,62C 18.965,60.2258 20.2983,58.3925 21.5,56.5 Z"/></g>
<g><path style="opacity:1" fill="#fcb443" d="M 36.5,60.5 C 36.8333,60.5 37.1667,60.5 37.5,60.5C 38.1667,61.8333 39.1667,62.8333 40.5,63.5C 41.1679,68.1606 39.1679,70.1606 34.5,69.5C 34.2671,67.9382 33.6005,66.6049 32.5,65.5C 35.9103,65.6162 37.2436,63.9496 36.5,60.5 Z"/></g>
<g><path style="opacity:0.989" fill="#796c78" d="M 18.5,63.5 C 19.1667,63.5 19.5,63.8333 19.5,64.5C 16.2348,66.5841 13.0681,68.9174 10,71.5C 8.39825,73.3687 7.39825,75.3687 7,77.5C 7.33333,77.8333 7.66667,78.1667 8,78.5C 11.4543,73.206 15.9543,69.206 21.5,66.5C 22.8333,67.1667 23.8333,68.1667 24.5,69.5C 21.555,74.8551 17.555,79.3551 12.5,83C 13.9071,84.452 15.4071,84.2853 17,82.5C 17.1626,84.3867 16.3293,85.8867 14.5,87C 9.83649,89.5825 4.83649,90.7491 -0.5,90.5C -0.5,88.1667 -0.5,85.8333 -0.5,83.5C 0.333041,71.6658 6.66637,64.9991 18.5,63.5 Z"/></g>
<g><path style="opacity:1" fill="#564f57" d="M 19.5,64.5 C 20.5,64.8333 21.1667,65.5 21.5,66.5C 15.9543,69.206 11.4543,73.206 8,78.5C 7.66667,78.1667 7.33333,77.8333 7,77.5C 7.39825,75.3687 8.39825,73.3687 10,71.5C 13.0681,68.9174 16.2348,66.5841 19.5,64.5 Z"/></g>
<g><path style="opacity:0.998" fill="#635a64" d="M 24.5,69.5 C 25.8333,70.1667 26.8333,71.1667 27.5,72.5C 26.0009,84.3336 19.3342,90.667 7.5,91.5C 4.83333,91.5 2.16667,91.5 -0.5,91.5C -0.5,91.1667 -0.5,90.8333 -0.5,90.5C 4.83649,90.7491 9.83649,89.5825 14.5,87C 16.3293,85.8867 17.1626,84.3867 17,82.5C 15.4071,84.2853 13.9071,84.452 12.5,83C 17.555,79.3551 21.555,74.8551 24.5,69.5 Z"/></g>
</svg>
